<svg width="33" height="32" viewBox="0 0 33 32" fill="none" xmlns="http://www.w3.org/2000/svg">
<path d="M33 15.5C33 24.0604 25.6127 31 16.5 31C7.3873 31 0 24.0604 0 15.5C0 6.93959 7.3873 0 16.5 0C25.6127 0 33 6.93959 33 15.5Z" fill="#111111"/>
<path d="M21.4959 12.5967H22.8461V17.7328H21.4959V12.5967Z" fill="white"/>
<path d="M22.8461 10.9749C22.8461 11.4228 22.5439 11.7858 22.171 11.7858C21.7982 11.7858 21.4959 11.4228 21.4959 10.9749C21.4959 10.527 21.7982 10.1639 22.171 10.1639C22.5439 10.1639 22.8461 10.527 22.8461 10.9749Z" fill="#9071E9"/>
<path d="M6.55952 17.7869V11.0527H9.81631L9.68669 12.094H7.75044V14.0014H9.43554V15.0426H7.75044V17.7869H6.55952Z" fill="white"/>
<path d="M11.6028 17.9426C11.2517 17.9426 10.979 17.8226 10.7846 17.5825C10.5901 17.336 10.4929 16.9889 10.4929 16.5413V10.5759L11.6433 10.4202V16.5023C11.6433 16.7294 11.7216 16.8429 11.8783 16.8429C11.9647 16.8429 12.0403 16.8235 12.1051 16.7845L12.34 17.7674C12.1186 17.8842 11.8729 17.9426 11.6028 17.9426Z" fill="white"/>
<path d="M16.2937 16.3564C16.2937 16.5575 16.318 16.7067 16.3666 16.804C16.4152 16.8948 16.4962 16.963 16.6096 17.0084L16.3666 17.9231C16.1128 17.8972 15.9048 17.8258 15.7428 17.709C15.5862 17.5923 15.4646 17.4106 15.3782 17.1641C15.0974 17.6831 14.668 17.9426 14.0901 17.9426C13.6634 17.9426 13.3232 17.7966 13.0693 17.5047C12.8209 17.2062 12.6966 16.8202 12.6966 16.3466C12.6966 15.7822 12.8668 15.3508 13.207 15.0524C13.5473 14.7539 14.0361 14.6047 14.6734 14.6047H15.1676V14.3517C15.1676 14.0338 15.1082 13.8132 14.9894 13.69C14.8705 13.5667 14.6734 13.5051 14.3979 13.5051C14.0955 13.5051 13.7174 13.5959 13.2637 13.7775L13.0045 12.8531C13.5392 12.6 14.0685 12.4735 14.5924 12.4735C15.1757 12.4735 15.6051 12.626 15.8805 12.9309C16.156 13.2293 16.2937 13.677 16.2937 14.2738V16.3564ZM14.406 16.95C14.7301 16.95 14.984 16.7586 15.1676 16.3758V15.393H14.7868C14.1657 15.393 13.8551 15.6719 13.8551 16.2299C13.8551 16.4569 13.9011 16.6353 13.9929 16.7651C14.0901 16.8883 14.2278 16.95 14.406 16.95Z" fill="white"/>
<path d="M21.0106 12.6292L19.6333 17.7869H18.2642L16.8626 12.6292H18.1103L18.9609 16.7067L19.8278 12.6292H21.0106Z" fill="white"/>
<path d="M5.07917 12.6643L5.44149 13.6388L2.92891 14.9066L5.44149 16.1554L5.07917 17.1488L1.99161 15.5121V14.3011L5.07917 12.6643Z" fill="url(#paint0_linear_159_3100)"/>
<path d="M25.7852 10.4207L26.754 10.6856L24.9109 19.1627L23.9342 18.8884L25.7852 10.4207Z" fill="url(#paint1_linear_159_3100)"/>
<path d="M28.1681 12.7292L31.2556 14.3659V15.577L28.1681 17.2137L27.8057 16.2203L30.3183 14.9715L27.8057 13.7037L28.1681 12.7292Z" fill="url(#paint2_linear_159_3100)"/>
<defs>
<linearGradient id="paint0_linear_159_3100" x1="16.5" y1="0" x2="16.5" y2="31" gradientUnits="userSpaceOnUse">
<stop stop-color="#C3AEFF"/>
<stop offset="1" stop-color="#9071E9"/>
</linearGradient>
<linearGradient id="paint1_linear_159_3100" x1="16.5" y1="0" x2="16.5" y2="31" gradientUnits="userSpaceOnUse">
<stop stop-color="#C3AEFF"/>
<stop offset="1" stop-color="#9071E9"/>
</linearGradient>
<linearGradient id="paint2_linear_159_3100" x1="16.5" y1="0" x2="16.5" y2="31" gradientUnits="userSpaceOnUse">
<stop stop-color="#C3AEFF"/>
<stop offset="1" stop-color="#9071E9"/>
</linearGradient>
</defs>
</svg>
