<svg width="602" height="8" viewBox="0 0 602 7" fill="none" xmlns="http://www.w3.org/2000/svg">
<rect x="6" y="3" width="586.17" height="2" fill="black"/>
<path d="M303.925 3.5C303.925 5.15929 302.588 6.5 300.943 6.5C299.299 6.5 297.961 5.15929 297.961 3.5C297.961 1.84071 299.299 0.5 300.943 0.5C302.588 0.5 303.925 1.84071 303.925 3.5Z" fill="url(#paint0_linear_24_42)" stroke="black"/>
<path d="M600.505 3.5C600.505 5.15929 599.167 6.5 597.523 6.5C595.879 6.5 594.541 5.15929 594.541 3.5C594.541 1.84071 595.879 0.5 597.523 0.5C599.167 0.5 600.505 1.84071 600.505 3.5Z" fill="url(#paint1_linear_24_42)" stroke="black"/>
<path d="M7.34044 3.5C7.34044 5.15929 6.00293 6.5 4.35845 6.5C2.71398 6.5 1.37646 5.15929 1.37646 3.5C1.37646 1.84071 2.71398 0.5 4.35845 0.5C6.00293 0.5 7.34044 1.84071 7.34044 3.5Z" fill="url(#paint2_linear_24_42)" stroke="black"/>
<defs>
<linearGradient id="paint0_linear_24_42" x1="300.943" y1="0" x2="300.943" y2="7" gradientUnits="userSpaceOnUse">
<stop stop-color="#C3AEFF"/>
<stop offset="1" stop-color="#9071E9"/>
</linearGradient>
<linearGradient id="paint1_linear_24_42" x1="597.523" y1="0" x2="597.523" y2="7" gradientUnits="userSpaceOnUse">
<stop stop-color="#C3AEFF"/>
<stop offset="1" stop-color="#9071E9"/>
</linearGradient>
<linearGradient id="paint2_linear_24_42" x1="4.35845" y1="0" x2="4.35845" y2="7" gradientUnits="userSpaceOnUse">
<stop stop-color="#C3AEFF"/>
<stop offset="1" stop-color="#9071E9"/>
</linearGradient>
</defs>
</svg>
