<svg width="8" height="514" viewBox="0 0 8 414" fill="none" xmlns="http://www.w3.org/2000/svg">
<path d="M2 1H4V411H2V1Z" fill="black"/>
<path d="M6.71105 3.5C6.71105 5.15929 5.37354 6.5 3.72906 6.5C2.08458 6.5 0.74707 5.15929 0.74707 3.5C0.74707 1.84071 2.08458 0.5 3.72906 0.5C5.37354 0.5 6.71105 1.84071 6.71105 3.5Z" fill="url(#paint0_linear_24_53)" stroke="black"/>
<path d="M6.71105 206.5C6.71105 208.159 5.37354 209.5 3.72906 209.5C2.08458 209.5 0.74707 208.159 0.74707 206.5C0.74707 204.841 2.08458 203.5 3.72906 203.5C5.37354 203.5 6.71105 204.841 6.71105 206.5Z" fill="url(#paint1_linear_24_53)" stroke="black"/>
<path d="M6.71105 410.5C6.71105 412.159 5.37354 413.5 3.72906 413.5C2.08458 413.5 0.74707 412.159 0.74707 410.5C0.74707 408.841 2.08458 407.5 3.72906 407.5C5.37354 407.5 6.71105 408.841 6.71105 410.5Z" fill="url(#paint2_linear_24_53)" stroke="black"/>
<defs>
<linearGradient id="paint0_linear_24_53" x1="3.72906" y1="0" x2="3.72906" y2="7" gradientUnits="userSpaceOnUse">
<stop stop-color="#C3AEFF"/>
<stop offset="1" stop-color="#9071E9"/>
</linearGradient>
<linearGradient id="paint1_linear_24_53" x1="3.72906" y1="203" x2="3.72906" y2="210" gradientUnits="userSpaceOnUse">
<stop stop-color="#C3AEFF"/>
<stop offset="1" stop-color="#9071E9"/>
</linearGradient>
<linearGradient id="paint2_linear_24_53" x1="3.72906" y1="407" x2="3.72906" y2="414" gradientUnits="userSpaceOnUse">
<stop stop-color="#C3AEFF"/>
<stop offset="1" stop-color="#9071E9"/>
</linearGradient>
</defs>
</svg>
