<svg width="41" height="40" viewBox="0 0 41 40" fill="none" xmlns="http://www.w3.org/2000/svg">
<path d="M9.11576 36.4706L6.58545 8.09155H34.3876L31.8551 36.4659L20.4695 39.6228L9.11576 36.4706V36.4706Z" fill="url(#paint0_linear_22_31)"/>
<path d="M20.4867 20.6939H25.0923L25.4108 17.1298H20.4867V13.6492H29.2145L29.1311 14.5829L28.2758 24.1742H20.4867V20.6939V20.6939Z" fill="black"/>
<path d="M20.5076 29.7332L20.4923 29.7376L16.6161 28.6907L16.3679 25.9148H12.8745L13.3623 31.3798L20.4917 33.3589L20.5079 33.3542V29.7332H20.5076Z" fill="black"/>
<path d="M24.7967 24.0269L24.3774 28.6881L20.4955 29.7359V33.3572L27.6308 31.3797L27.6833 30.7915L28.2889 24.0269H24.7967V24.0269Z" fill="black"/>
<path d="M20.4988 13.6492V17.1295H12.0917L12.0217 16.3473L11.8632 14.5829L11.7798 13.6492H20.4988ZM20.4867 20.6942V24.1748H16.6595L16.5898 23.3926L16.431 21.6279L16.3476 20.6942H20.4867V20.6942Z" fill="black"/>
<defs>
<linearGradient id="paint0_linear_22_31" x1="20.4865" y1="8.09155" x2="20.4865" y2="39.6228" gradientUnits="userSpaceOnUse">
<stop stop-color="#C3AEFF"/>
<stop offset="1" stop-color="#9071E9"/>
</linearGradient>
</defs>
</svg>
