<svg width="24" height="22" viewBox="0 0 24 22" fill="none" xmlns="http://www.w3.org/2000/svg">
<path d="M24 1.25V17C20.625 18.0781 19.6071 18.5 17.625 18.5C14.25 18.5 12.9643 17 9.58929 17C8.51786 17 7.66071 17.1875 6.85714 17.375V14.375C7.66071 14.1875 8.51786 14 9.58929 14C12.9643 14 14.25 15.5 17.625 15.5C18.6964 15.5 19.5 15.3594 20.5714 15.0781V5.32812C19.5 5.60938 18.6964 5.75 17.625 5.75C14.25 5.75 12.9643 4.25 9.58929 4.25C6.85714 4.25 5.57143 5.23438 3.42857 5.60938V20C3.42857 20.8438 2.67857 21.5 1.71429 21.5C0.75 21.5 0 20.8438 0 20V2C0 1.15625 0.75 0.5 1.71429 0.5C2.67857 0.5 3.42857 1.15625 3.42857 2V2.60938C5.57143 2.23438 6.85714 1.25 9.58929 1.25C12.9643 1.25 14.25 2.75 17.625 2.75C19.6071 2.75 20.625 2.32812 24 1.25Z" fill="url(#paint0_linear_100_138)"/>
<defs>
<linearGradient id="paint0_linear_100_138" x1="12" y1="0.5" x2="12" y2="21.5" gradientUnits="userSpaceOnUse">
<stop stop-color="#C3AEFF"/>
<stop offset="1" stop-color="#9071E9"/>
</linearGradient>
</defs>
</svg>
