<svg width="32" height="32" viewBox="0 0 32 32" fill="none" xmlns="http://www.w3.org/2000/svg">
<path fill-rule="evenodd" clip-rule="evenodd" d="M15.999 0.333252C7.164 0.333252 0 7.52475 0 16.3978C0 23.4938 4.584 29.5145 10.943 31.639C11.743 31.7865 12.035 31.2905 12.035 30.865C12.035 30.4835 12.021 29.4735 12.013 28.1333C7.562 29.104 6.623 25.9798 6.623 25.9798C5.896 24.1245 4.847 23.6305 4.847 23.6305C3.394 22.6335 4.957 22.6538 4.957 22.6538C6.562 22.7673 7.407 24.3093 7.407 24.3093C8.835 26.764 11.152 26.0553 12.064 25.6435C12.209 24.6055 12.623 23.8975 13.08 23.496C9.527 23.0905 5.792 21.713 5.792 15.5578C5.792 13.8038 6.415 12.3703 7.439 11.2468C7.274 10.8403 6.725 9.20775 7.595 6.996C7.595 6.996 8.939 6.56425 11.995 8.6425C13.272 8.286 14.64 8.1085 16.001 8.10125C17.36 8.10825 18.729 8.286 20.007 8.6425C23.061 6.56425 24.402 6.996 24.402 6.996C25.275 9.20775 24.726 10.8403 24.561 11.2468C25.587 12.3703 26.206 13.8038 26.206 15.5578C26.206 21.728 22.465 23.0865 18.901 23.484C19.475 23.98 19.987 24.9598 19.987 26.4588C19.987 28.6063 19.967 30.338 19.967 30.8653C19.967 31.295 20.255 31.795 21.067 31.6373C27.42 29.5085 32 23.4918 32 16.3978C32 7.52475 24.836 0.333252 15.999 0.333252Z" fill="url(#paint0_linear_24_108)"/>
<defs>
<linearGradient id="paint0_linear_24_108" x1="16" y1="0.333252" x2="16" y2="31.667" gradientUnits="userSpaceOnUse">
<stop stop-color="#C3AEFF"/>
<stop offset="1" stop-color="#9071E9"/>
</linearGradient>
</defs>
</svg>
