<svg width="640" height="512" viewBox="0 0 640 512" fill="none" xmlns="http://www.w3.org/2000/svg">
<path d="M623.1 136.9L340.4 35.7001C326.67 30.7901 311.7 30.7901 297.97 35.7001L16.05 136.9C6.438 140.4 0 149.6 0 160C0 170.4 6.438 179.65 16.05 183.09L76.07 204.6C64.18 220.4 55.81 238.76 51.52 258.55C40.05 263.4 32 274.8 32 288C32 297.953 36.814 306.49 43.94 312.36L19.11 461.36C17.48 471.1 25 480 34.89 480H93.11C102.997 480 110.52 471.121 108.89 461.37L84.06 312.37C91.19 306.5 96 297.1 96 288C96 277.71 90.826 268.97 83.28 263.11C87.532 245.35 96.16 229.29 108.22 216.08L298.82 284.31C312.55 289.22 327.52 289.22 341.25 284.31L623.95 183.11C633.6 179.6 640 170.4 640 160C640 149.6 633.6 140.4 623.1 136.9ZM351.1 314.4C341.7 318.1 330.9 320 320 320C309.08 320 298.31 318.133 288 314.445L142.8 262.5L128 405.3C128 446.6 213.1 480 320 480C425.1 480 512 446.6 512 405.33L497.22 262.43L351.1 314.4Z" fill="url(#paint0_linear_148_158)"/>
<defs>
<linearGradient id="paint0_linear_148_158" x1="320" y1="32.0176" x2="320" y2="480" gradientUnits="userSpaceOnUse">
<stop stop-color="#C3AEFF"/>
<stop offset="1" stop-color="#9071E9"/>
</linearGradient>
</defs>
</svg>
