<svg width="41" height="40" viewBox="0 0 41 40" fill="none" xmlns="http://www.w3.org/2000/svg">
<path d="M9.15455 36.3606L6.64111 8.16968H34.2592L31.7433 36.3562L20.4333 39.4916L9.15455 36.3606Z" fill="url(#paint0_linear_22_45)"/>
<path d="M20.4502 20.9306H15.8749L15.5593 17.3896H20.4502V13.9321H11.7805L11.863 14.8599L12.713 24.3878H20.4502V20.9306ZM20.4502 29.9096L20.4349 29.9137L16.5846 28.8737L16.3383 26.1165H12.8674L13.3518 31.5453L20.4343 33.5115L20.4502 33.5068V29.9096Z" fill="black"/>
<path d="M20.4384 20.9306V24.3878H24.6959L24.2946 28.8718L20.4384 29.9128V33.5096L27.5265 31.5453L27.5784 30.9609L28.3909 21.8587L28.4752 20.9306H27.5434H20.4384ZM20.4384 13.9321V17.3896H28.7899L28.859 16.6124L29.0168 14.8599L29.0996 13.9321H20.4384Z" fill="black"/>
<defs>
<linearGradient id="paint0_linear_22_45" x1="20.4502" y1="8.16968" x2="20.4502" y2="39.4916" gradientUnits="userSpaceOnUse">
<stop stop-color="#C3AEFF"/>
<stop offset="1" stop-color="#9071E9"/>
</linearGradient>
</defs>
</svg>
