<svg width="41" height="40" viewBox="0 0 41 40" fill="none" xmlns="http://www.w3.org/2000/svg">
<g clip-path="url(#clip0_22_51)">
<path d="M0.926636 0.439941H40.0466V39.5603H0.926636V0.439941Z" fill="url(#paint0_linear_22_51)"/>
<path d="M36.8452 30.23C36.5586 28.4453 35.3949 26.9463 31.9477 25.5485C30.7502 24.9981 29.4152 24.6041 29.0174 23.6966C28.8761 23.1685 28.8574 22.871 28.9467 22.5513C29.2033 21.5138 30.4417 21.1903 31.4233 21.4878C32.0555 21.6997 32.6539 22.1869 33.0149 22.9641C34.703 21.871 34.6996 21.8781 35.8783 21.1269C35.4467 20.4578 35.2164 20.1491 34.9339 19.8628C33.9186 18.7288 32.5352 18.1447 30.3227 18.1894L29.1702 18.3385C28.0658 18.6175 27.0133 19.1972 26.3961 19.9744C24.5442 22.0756 25.0724 25.7531 27.3258 27.2666C29.5458 28.9328 32.8071 29.3119 33.2236 30.87C33.6289 32.7775 31.8217 33.395 30.0255 33.1756C28.7017 32.9003 27.9655 32.2275 27.1696 31.0041C25.7046 31.8519 25.7046 31.8519 24.1983 32.7181C24.5555 33.4991 24.9308 33.8525 25.5296 34.5291C28.3633 37.4035 35.4546 37.2622 36.7264 32.9116C36.778 32.7622 37.1205 31.766 36.8452 30.23V30.23ZM22.1936 18.4197H18.5346L18.5196 27.8797C18.5196 29.8916 18.6236 31.736 18.2964 32.3013C17.7611 33.4131 16.3739 33.2753 15.7417 33.0597C15.0983 32.7435 14.7711 32.2938 14.3921 31.6581C14.288 31.4756 14.2099 31.3344 14.1836 31.3235L11.2086 33.1453C11.7033 34.1606 12.4321 35.0419 13.3655 35.6144C14.7599 36.4513 16.6339 36.7078 18.5939 36.2578C19.8696 35.8863 20.9702 35.1166 21.5464 33.945C22.3796 32.4091 22.2008 30.55 22.1933 28.4938C22.2121 25.1391 22.1936 21.785 22.1936 18.4197Z" fill="black"/>
</g>
<defs>
<linearGradient id="paint0_linear_22_51" x1="20.4866" y1="0.439941" x2="20.4866" y2="39.5603" gradientUnits="userSpaceOnUse">
<stop stop-color="#C3AEFF"/>
<stop offset="1" stop-color="#9071E9"/>
</linearGradient>
<clipPath id="clip0_22_51">
<rect x="0.486694" width="40" height="40" rx="5" fill="white"/>
</clipPath>
</defs>
</svg>
