<svg width="24" height="24" viewBox="0 0 24 24" fill="none" xmlns="http://www.w3.org/2000/svg">
<path d="M11.2933 7.04993L13.4143 4.92895C14.9764 3.36686 17.5091 3.36685 19.0711 4.92895C20.6332 6.49105 20.6332 9.02371 19.0711 10.5858L14.8285 14.8284C13.2664 16.3905 10.7338 16.3905 9.17165 14.8284C8.78113 14.4379 8.78113 13.8048 9.17165 13.4142C9.56218 13.0237 10.1953 13.0237 10.5859 13.4142C11.3669 14.1953 12.6332 14.1953 13.4143 13.4142L17.6569 9.17159C18.438 8.39054 18.438 7.12421 17.6569 6.34317C16.8759 5.56212 15.6096 5.56212 14.8285 6.34317L13.8272 7.34446C13.0182 7.02743 12.1432 6.92925 11.2933 7.04993ZM12.7068 16.9501L10.5859 19.0711C9.02377 20.6332 6.49111 20.6332 4.92901 19.0711C3.36692 17.509 3.36692 14.9763 4.92901 13.4142L9.17165 9.17159C10.7338 7.6095 13.2664 7.6095 14.8285 9.17159C15.219 9.56212 15.219 10.1953 14.8285 10.5858C14.438 10.9763 13.8048 10.9763 13.4143 10.5858C12.6332 9.80476 11.3669 9.80476 10.5859 10.5858L6.34323 14.8284C5.56218 15.6095 5.56218 16.8758 6.34323 17.6569C7.12428 18.4379 8.39061 18.4379 9.17165 17.6569L10.1729 16.6556C10.982 16.9726 11.857 17.0708 12.7068 16.9501Z" fill="url(#paint0_linear_39_117)"/>
<defs>
<linearGradient id="paint0_linear_39_117" x1="9.17165" y1="9.17159" x2="14.8285" y2="14.8284" gradientUnits="userSpaceOnUse">
<stop stop-color="#C3AEFF"/>
<stop offset="1" stop-color="#9071E9"/>
</linearGradient>
</defs>
</svg>
