<svg width="32" height="32" viewBox="0 0 32 32" fill="none" xmlns="http://www.w3.org/2000/svg">
<path fill-rule="evenodd" clip-rule="evenodd" d="M0.80725 10.7833H7.04425V30.5456H0.80725V10.7833ZM3.76675 8.31159H3.7215C1.46375 8.31159 0 6.80084 0 4.88584C0 2.93359 1.507 1.45459 3.81 1.45459C6.111 1.45459 7.526 2.92984 7.571 4.88034C7.571 6.79509 6.111 8.31159 3.76675 8.31159ZM32 30.5456H24.9275V20.3188C24.9275 17.6421 23.8213 15.8146 21.3885 15.8146C19.5278 15.8146 18.493 17.0478 18.0112 18.2361C17.8307 18.6626 17.8587 19.2568 17.8587 19.8511V30.5453H10.8523C10.8523 30.5453 10.9425 12.4298 10.8523 10.7831H17.8587V13.8846C18.2727 12.5286 20.5115 10.5931 24.0845 10.5931C28.5173 10.5931 31.9998 13.4356 31.9998 19.5568V30.5456H32Z" fill="url(#paint0_linear_24_103)"/>
<defs>
<linearGradient id="paint0_linear_24_103" x1="16" y1="1.45459" x2="16" y2="30.5456" gradientUnits="userSpaceOnUse">
<stop stop-color="#C3AEFF"/>
<stop offset="1" stop-color="#9071E9"/>
</linearGradient>
</defs>
</svg>
