<svg width="80" height="80" viewBox="0 0 512 512" fill="none" xmlns="http://www.w3.org/2000/svg">
<path d="M418.2 177.2C412.8 175.4 407.4 173.7 402 172.1C402.9 168.4 403.7 164.7 404.5 161C416.8 101.4 408.7 53.5002 381.4 37.7002C355.1 22.6002 312.2 38.3002 268.8 76.1002C264.5 79.8002 260.3 83.7002 256.3 87.6002C253.6 85.0002 250.8 82.4002 248 79.9002C202.5 39.5002 156.9 22.5002 129.6 38.4002C103.4 53.6002 95.6 98.7002 106.6 155.1C107.7 160.7 108.9 166.2 110.3 171.8C103.9 173.6 97.6 175.6 91.7 177.7C38.3 196.2 0 225.4 0 255.6C0 286.8 40.8 318.1 96.3 337.1C100.8 338.6 105.3 340.1 109.9 341.4C108.4 347.4 107.1 353.3 105.9 359.4C95.4 414.9 103.6 458.9 129.8 474C156.8 489.6 202.2 473.6 246.4 434.9C249.9 431.8 253.4 428.6 256.9 425.2C261.3 429.5 265.9 433.6 270.5 437.6C313.3 474.4 355.6 489.3 381.7 474.2C408.7 458.6 417.5 411.3 406.1 353.7C405.2 349.3 404.2 344.8 403.1 340.2C406.3 339.3 409.4 338.3 412.5 337.3C470.2 318.2 512 287.3 512 255.6C512 225.3 472.6 195.9 418.2 177.2V177.2ZM282.9 92.3002C320.1 59.9002 354.8 47.2002 370.6 56.3002C387.5 66.0002 394 105.2 383.4 156.7C382.7 160.1 382 163.4 381.1 166.7C358.9 161.7 336.4 158.1 313.8 156.1C300.8 137.5 286.6 119.7 271.2 103C275.1 99.3002 278.9 95.8002 282.9 92.3002V92.3002ZM167.2 307.5C172.3 316.2 177.5 324.9 183 333.4C167.4 331.7 151.9 329.2 136.6 325.9C141 311.5 146.5 296.6 152.9 281.4C157.5 290.2 162.2 298.9 167.2 307.5V307.5ZM136.9 187.2C151.3 184 166.6 181.4 182.5 179.4C177.2 187.7 172 196.2 167.1 204.8C162.2 213.3 157.4 222 152.9 230.8C146.6 215.9 141.3 201.3 136.9 187.2ZM164.3 256.1C170.9 242.3 178.1 228.8 185.7 215.5C193.3 202.2 201.5 189.3 210.1 176.6C225.1 175.5 240.4 174.9 256 174.9C271.6 174.9 287 175.5 301.9 176.6C310.4 189.2 318.5 202.1 326.2 215.3C333.9 228.5 341.1 242 347.9 255.7C341.2 269.5 334 283.1 326.3 296.5C318.7 309.8 310.6 322.7 302.1 335.5C287.2 336.6 271.7 337.1 256 337.1C240.3 337.1 225.1 336.6 210.4 335.7C201.7 323 193.5 310 185.8 296.7C178.1 283.4 171 269.9 164.3 256.1ZM344.9 307.3C350 298.5 354.8 289.6 359.5 280.6C365.9 295.1 371.5 309.8 376.4 324.9C360.9 328.4 345.2 331.1 329.4 332.9C334.8 324.5 339.9 315.9 344.9 307.3ZM359.3 230.8C354.6 222 349.8 213.2 344.8 204.6C339.9 196.1 334.8 187.7 329.5 179.4C345.6 181.4 361 184.1 375.4 187.4C370.8 202.2 365.4 216.6 359.3 230.8V230.8ZM256.2 118.3C266.7 129.7 276.6 141.7 285.8 154.1C266 153.2 246.1 153.2 226.3 154.1C236.1 141.2 246.2 129.2 256.2 118.3ZM140.2 57.0002C157 47.2002 194.3 61.2002 233.6 96.0002C236.1 98.2002 238.6 100.6 241.2 103C225.7 119.7 211.4 137.5 198.3 156.1C175.7 158.1 153.3 161.6 131.1 166.5C129.8 161.4 128.7 156.2 127.6 151C118.2 102.6 124.4 66.1002 140.2 57.0002V57.0002ZM115.7 320.6C111.5 319.4 107.4 318.1 103.3 316.7C82 310 57.8 299.4 40.3 285.5C30.2 278.5 23.4 267.7 21.5 255.6C21.5 237.3 53.1 213.9 98.7 198C104.4 196 110.2 194.2 116 192.5C122.8 214.2 131 235.5 140.5 256.1C130.9 277 122.6 298.6 115.7 320.6V320.6ZM232.3 418.6C215.8 433.7 196.7 445.7 175.9 453.9C164.8 459.2 152 459.7 140.6 455.2C124.7 446 118.1 410.7 127.1 363.2C128.2 357.6 129.4 352 130.8 346.5C153.2 351.3 175.8 354.6 198.7 356.3C211.9 375 226.4 392.9 241.9 409.7C238.7 412.8 235.5 415.8 232.3 418.6ZM256.8 394.3C246.6 383.3 236.4 371.1 226.5 358C236.1 358.4 246 358.6 256 358.6C266.3 358.6 276.4 358.4 286.4 357.9C277.2 370.6 267.3 382.7 256.8 394.3V394.3ZM387.5 424.3C386.6 436.5 380.6 447.9 371 455.6C355.1 464.8 321.2 452.8 284.6 421.4C280.4 417.8 276.2 413.9 271.9 409.9C287.2 393 301.3 375.1 314.1 356.3C337 354.4 359.8 350.9 382.3 345.8C383.3 349.9 384.2 354 385 358C389.9 379.6 390.7 402.1 387.5 424.3V424.3ZM405.7 316.8C402.9 317.7 400.1 318.6 397.2 319.4C390.2 297.6 381.6 276.3 371.7 255.6C381.3 235.2 389.4 214.2 396.2 192.7C401.4 194.2 406.4 195.8 411.2 197.4C457.8 213.4 490.5 237.2 490.5 255.4C490.5 275 455.6 300.3 405.7 316.8ZM256 301.8C281.3 301.8 301.8 281.3 301.8 256C301.8 230.7 281.3 210.2 256 210.2C230.7 210.2 210.2 230.7 210.2 256C210.2 281.3 230.7 301.8 256 301.8Z" fill="url(#paint0_linear_150_160)"/>
<defs>
<linearGradient id="paint0_linear_150_160" x1="256" y1="32.0127" x2="256" y2="480.037" gradientUnits="userSpaceOnUse">
<stop stop-color="#C3AEFF"/>
<stop offset="1" stop-color="#9071E9"/>
</linearGradient>
</defs>
</svg>
