<svg width="41" height="40" viewBox="0 0 41 40" fill="none" xmlns="http://www.w3.org/2000/svg">
<path d="M20 23.4905C22 22.5 23.6598 21.7818 23.6598 19.8143C23.6598 17.8468 21.5 17.5 20 19.5C18.5 17.5 16.4375 17.9605 16.4375 19.928C16.4375 21.8955 17.5 22 20 23.4905Z" fill="url(#paint0_linear_86_135)"/>
<path d="M33.9998 14.125C33.3123 13.875 32.5935 13.625 31.8435 13.4063C32.031 12.6563 32.1873 11.9062 32.3123 11.1875C32.9685 7.0625 32.2498 4.15625 30.2498 3.03125C29.656 2.6875 28.9998 2.53125 28.2498 2.53125C26.0623 2.53125 23.281 4.15625 20.4685 6.875C17.656 4.15625 14.8748 2.53125 12.6873 2.53125C11.9373 2.53125 11.281 2.6875 10.6873 3.03125C8.68726 4.1875 7.96851 7.09375 8.62476 11.1875C8.74976 11.9062 8.90601 12.6563 9.09351 13.4063C8.34351 13.625 7.62476 13.8437 6.93726 14.125C3.03101 15.625 0.906006 17.6875 0.906006 20C0.906006 22.3125 3.06226 24.375 6.93726 25.875C7.62476 26.125 8.34351 26.375 9.09351 26.5938C8.90601 27.3438 8.74976 28.0937 8.62476 28.8125C7.96851 32.9375 8.68726 35.8438 10.6873 36.9688C11.281 37.3125 11.9373 37.4688 12.6873 37.4688C14.906 37.4688 17.6873 35.8438 20.4685 33.125C23.281 35.8438 26.0623 37.4688 28.2498 37.4688C28.9998 37.4688 29.656 37.3125 30.2498 36.9688C32.2498 35.8125 32.9685 32.9062 32.3123 28.8125C32.1873 28.0937 32.031 27.3438 31.8435 26.5938C32.5935 26.375 33.3123 26.1563 33.9998 25.875C37.906 24.375 40.031 22.3125 40.031 20C40.031 17.6875 37.906 15.625 33.9998 14.125ZM29.3748 4.59375C30.656 5.34375 31.0935 7.65625 30.5623 10.9375C30.4685 11.5937 30.3123 12.2813 30.1248 13C28.4998 12.625 26.781 12.375 24.9685 12.2187C23.906 10.7187 22.8123 9.375 21.7185 8.15625C24.031 5.875 26.3748 4.3125 28.281 4.3125C28.6873 4.3125 29.0623 4.40625 29.3748 4.59375ZM25.8748 23.125C25.3123 24.125 24.656 25.125 23.9685 26.125C22.8123 26.2188 21.656 26.25 20.4685 26.25C19.2498 26.25 18.0935 26.2188 16.9685 26.125C16.281 25.125 15.656 24.125 15.0935 23.125C14.4998 22.0938 13.9373 21.0313 13.4373 20C13.9373 18.9688 14.4998 17.9063 15.0935 16.875C15.656 15.875 16.3123 14.875 16.9998 13.875C18.156 13.7813 19.3123 13.75 20.4998 13.75C21.7185 13.75 22.8748 13.7813 23.9998 13.875C24.6873 14.875 25.3123 15.875 25.8748 16.875C26.4685 17.9063 27.031 18.9688 27.531 20C26.9998 21.0313 26.4685 22.0625 25.8748 23.125ZM28.4685 22.0937C28.9373 23.1875 29.3123 24.25 29.656 25.3125C28.5935 25.5625 27.4685 25.75 26.281 25.9063C26.656 25.3125 27.0623 24.6875 27.406 24.0313C27.781 23.375 28.1248 22.7187 28.4685 22.0937ZM20.4685 30.5625C19.7185 29.75 18.9998 28.875 18.3123 27.9688C19.031 28 19.7498 28.0312 20.4685 28.0312C21.1873 28.0312 21.906 28 22.6248 27.9688C21.9373 28.875 21.2185 29.75 20.4685 30.5625ZM14.656 25.875C13.4685 25.7188 12.3435 25.5313 11.281 25.2813C11.6248 24.25 11.9998 23.1562 12.4685 22.0625C12.8123 22.6875 13.156 23.3437 13.531 23.9687C13.906 24.6562 14.281 25.25 14.656 25.875ZM12.4685 17.9062C11.9998 16.8125 11.6248 15.75 11.281 14.6875C12.3435 14.4375 13.4685 14.25 14.656 14.0938C14.281 14.6875 13.8748 15.3125 13.531 15.9688C13.156 16.625 12.8123 17.2812 12.4685 17.9062ZM20.4685 9.4375C21.2185 10.25 21.9373 11.125 22.6248 12.0312C21.906 12 21.1873 11.9687 20.4685 11.9687C19.7498 11.9687 19.031 12 18.3123 12.0312C18.9998 11.125 19.7185 10.25 20.4685 9.4375ZM27.406 16L26.281 14.125C27.4685 14.2812 28.5935 14.4687 29.656 14.7188C29.3123 15.75 28.9373 16.8438 28.4685 17.9375C28.1248 17.2813 27.781 16.625 27.406 16ZM10.3748 10.9375C9.84351 7.65625 10.281 5.34375 11.5623 4.59375C11.8748 4.40625 12.2498 4.3125 12.656 4.3125C14.531 4.3125 16.8748 5.84375 19.2185 8.15625C18.1248 9.34375 17.031 10.7187 15.9685 12.2187C14.156 12.375 12.4373 12.6562 10.8123 13C10.6248 12.2813 10.4998 11.5937 10.3748 10.9375ZM2.65601 20C2.65601 18.5313 4.43726 16.9688 7.56226 15.8125C8.18726 15.5625 8.87476 15.3438 9.56226 15.1563C10.0623 16.7188 10.6873 18.375 11.4373 20.0312C10.6873 21.6875 10.031 23.3125 9.56226 24.875C5.24976 23.625 2.65601 21.75 2.65601 20ZM11.5623 35.4063C10.281 34.6563 9.84351 32.3438 10.3748 29.0625C10.4685 28.4063 10.6248 27.7188 10.8123 27C12.4373 27.375 14.156 27.625 15.9685 27.7813C17.031 29.2813 18.1248 30.625 19.2185 31.8438C16.906 34.125 14.5623 35.6875 12.656 35.6875C12.2498 35.6875 11.8748 35.5938 11.5623 35.4063ZM30.5623 29.0625C31.0935 32.3438 30.656 34.6563 29.3748 35.4063C29.0623 35.5938 28.6873 35.6875 28.281 35.6875C26.406 35.6875 24.0623 34.1563 21.7185 31.8438C22.8123 30.6563 23.906 29.2813 24.9685 27.7813C26.781 27.625 28.4998 27.3438 30.1248 27C30.3123 27.7188 30.4373 28.4063 30.5623 29.0625ZM33.3748 24.1875C32.7498 24.4375 32.0623 24.6563 31.3748 24.8438C30.8748 23.2813 30.2498 21.625 29.4998 19.9688C30.2498 18.3125 30.906 16.6875 31.3748 15.125C35.6873 16.375 38.281 18.25 38.281 20C38.281 21.4688 36.4685 23.0313 33.3748 24.1875Z" fill="url(#paint1_linear_86_135)"/>
<defs>
<linearGradient id="paint0_linear_86_135" x1="20.4685" y1="16.4375" x2="20.4685" y2="23.5625" gradientUnits="userSpaceOnUse">
<stop stop-color="#C3AEFF"/>
<stop offset="1" stop-color="#9071E9"/>
</linearGradient>
<linearGradient id="paint1_linear_86_135" x1="20.4685" y1="2.53125" x2="20.4685" y2="37.4688" gradientUnits="userSpaceOnUse">
<stop stop-color="#C3AEFF"/>
<stop offset="1" stop-color="#9071E9"/>
</linearGradient>
</defs>
</svg>
