<svg width="24" height="24" viewBox="0 0 39 34" fill="none" xmlns="http://www.w3.org/2000/svg">
<g clip-path="url(#clip0_86_131)">
<path d="M19.6918 7.74348C19.35 7.74082 19.0094 7.77895 18.6795 7.85681C18.2277 7.95173 17.5387 8.32714 17.1308 8.68273C16.4646 9.28198 16.3346 9.54548 16.0551 10.7638C15.9251 11.3631 16.7213 12.7896 17.4315 13.2203C18.1627 13.6694 19.1946 13.9315 20.7871 14.0816C23.1092 14.3083 23.7771 14.9826 23.7771 17.1941C23.7771 19.1448 23.1515 19.669 20.5921 19.8942C17.8182 20.1379 16.3996 21.0757 16.099 22.8933C15.9267 23.9997 16.7652 25.3866 17.9271 25.8556C20.571 26.9436 23.0458 25.5751 23.561 22.7446C23.9038 20.9256 24.5717 20.4184 26.8077 20.2696C29.3882 20.0812 30.7223 19.3134 31.2163 17.7381C31.6681 16.2931 30.7223 14.6823 29.1087 14.1199C28.6797 13.9697 27.6901 13.7827 26.9149 13.7076C24.4856 13.481 23.8616 13.107 23.6032 11.7385C23.2376 9.84439 23.0881 9.52564 22.313 8.77764C21.9837 8.4546 21.5802 8.19558 21.1286 8.0174C20.677 7.83923 20.1875 7.7459 19.6918 7.74348V7.74348ZM11.9162 13.9201C11.6449 13.9153 11.3738 13.9381 11.1086 13.9881C8.72145 14.4386 7.58233 16.8937 8.91483 18.6561C10.8291 21.1692 15.3238 20.0061 15.3661 16.9886C15.3856 15.2986 13.7736 13.9527 11.9162 13.9201V13.9201ZM3.3947 20.1025C3.16122 20.1074 2.92884 20.1321 2.70083 20.1761C-0.805922 20.8505 -0.934297 25.313 2.52858 26.1006C3.38983 26.3061 3.47433 26.3061 4.33395 26.1191C6.26933 25.6686 7.3662 24.0564 6.85108 22.4258C6.39933 20.9808 4.99208 20.0685 3.3947 20.1025ZM35.6087 20.1138C35.2301 20.1166 34.8336 20.196 34.3347 20.3433C32.0759 21.0191 31.3024 23.307 32.7422 25.0693C33.6473 26.1941 35.9272 26.5681 37.3247 25.8003C39.6257 24.5621 39.5396 21.4696 37.1736 20.4935C36.5561 20.23 36.0962 20.1096 35.6087 20.1138V20.1138Z" fill="url(#paint0_linear_86_131)"/>
</g>
<defs>
<linearGradient id="paint0_linear_86_131" x1="19.5001" y1="7.74335" x2="19.5001" y2="26.2571" gradientUnits="userSpaceOnUse">
<stop stop-color="#C3AEFF"/>
<stop offset="1" stop-color="#9071E9"/>
</linearGradient>
<clipPath id="clip0_86_131">
<rect width="39" height="34" fill="white"/>
</clipPath>
</defs>
</svg>
