<svg width="41" height="40" viewBox="0 0 41 40" fill="none" xmlns="http://www.w3.org/2000/svg">
<g clip-path="url(#clip0_22_58)">
<path fill-rule="evenodd" clip-rule="evenodd" d="M1.20618 17.5487C1.20618 17.7684 1.27086 17.9134 1.30711 18.0544C1.54336 18.9709 2.05118 19.7575 2.65368 20.475C3.5118 21.4975 4.56274 22.3206 5.6393 23.0947C6.57305 23.7659 7.52586 24.4222 8.46336 25.0884C8.6243 25.2028 8.77649 25.3344 8.95118 25.4747C8.80087 25.5559 8.67586 25.6275 8.54586 25.6934C7.30868 26.3209 6.11836 27.0244 5.02118 27.8766C4.35993 28.3903 3.72055 28.9362 3.26899 29.6497C2.54243 30.7972 2.28524 32.0197 2.8268 33.325C2.98493 33.7062 3.22618 34.0356 3.56649 34.2791C3.6768 34.3578 3.80055 34.4359 3.92961 34.4666C4.26024 34.5444 4.59711 34.5953 4.9318 34.6569L5.87961 34.6563C6.92774 34.5628 7.8818 34.2037 8.74399 33.6087C10.0915 32.6787 10.9993 31.4319 11.3896 29.8316C11.6734 28.6684 11.6849 27.5041 11.3506 26.3462C11.3196 26.2387 11.2806 26.1334 11.2399 26.0294C11.1993 25.9253 11.1515 25.8241 11.0952 25.6944L13.244 24.4587L13.2762 24.4863C13.2371 24.6141 13.1956 24.7416 13.1602 24.8706C12.9049 25.8031 12.7352 26.7519 12.7962 27.7197C12.8612 28.7509 13.149 29.7162 13.7527 30.5778C14.2409 31.2747 15.404 31.3006 15.9227 30.6013C16.1068 30.3528 16.2852 30.0931 16.4193 29.8159C16.7696 29.0925 17.094 28.3563 17.4287 27.625L17.4871 27.4913C17.4631 27.8375 17.4349 28.1416 17.4221 28.4459C17.4021 28.9213 17.4299 29.3938 17.5924 29.8459C17.7315 30.2328 17.9681 30.5219 18.4112 30.5728C18.7143 30.6075 18.9559 30.4687 19.1787 30.2928C19.5268 30.0181 19.8096 29.6787 20.0196 29.2931C20.6137 28.2022 21.2237 27.1178 21.7621 25.9994C22.3446 24.7897 22.854 23.5447 23.3949 22.3144L23.4843 22.0963C23.6121 22.5984 23.7012 23.0903 23.8652 23.5559C24.0559 24.0962 24.2918 24.6237 24.5487 25.1366C24.6702 25.3787 24.6562 25.5359 24.4877 25.7391C23.7827 26.5891 23.0899 27.4494 22.3965 28.3087C22.2431 28.4984 22.0902 28.6916 21.9624 28.8987C21.8852 29.0247 21.834 29.1781 21.8124 29.325C21.7709 29.6056 21.9443 29.8762 22.2446 29.9409C22.519 30 22.8112 30.0219 23.0909 30.0012C24.0587 29.93 24.9374 29.5903 25.7143 29.0147C26.7209 28.2691 27.044 27.2516 26.8002 26.0456C26.7343 25.7184 26.6177 25.4003 26.5043 25.085C26.4534 24.9428 26.4499 24.8431 26.5427 24.7106C27.3474 23.5616 28.0349 22.3425 28.6743 21.0953C28.6996 21.0462 28.7256 20.9972 28.7699 20.9447C28.9771 22.0228 29.289 23.0619 29.8477 24.0047C29.5627 24.2794 29.2806 24.5284 29.0252 24.8028C28.4631 25.4072 27.9756 26.0634 27.7212 26.8637C27.6118 27.2087 27.5277 27.5594 27.5765 27.9278C27.6521 28.5 28.1209 28.8719 28.6837 28.7416C29.8881 28.4628 30.9277 27.8953 31.6874 26.89C32.1987 26.2131 32.2452 25.4581 32.0312 24.6672C31.9724 24.4522 31.9027 24.2406 31.8277 23.9941C32.1249 23.9019 32.4146 23.7913 32.7143 23.7228C34.2702 23.3678 35.8093 23.4297 37.3087 23.9916C38.184 24.3197 38.8912 24.8688 39.3106 25.7325C39.8227 26.7884 39.5396 27.7903 38.5443 28.4578C38.4515 28.52 38.3452 28.5691 38.2684 28.6469C38.2212 28.6947 38.1927 28.7903 38.2043 28.8562C38.2109 28.8947 38.3124 28.9428 38.3709 28.9422C38.6981 28.9397 38.9634 28.7681 39.2181 28.5919C39.8562 28.1503 40.3218 27.5563 40.4221 26.7741L40.4418 26.7153L40.4177 26.2059C40.4081 26.1766 40.4249 26.1475 40.4227 26.1253C40.2871 24.9862 39.6787 24.1028 38.7937 23.4103C37.7687 22.6088 36.5584 22.2787 35.2784 22.2266C34.2352 22.1841 33.2099 22.3391 32.2268 22.6962C31.9465 22.7978 31.6687 22.9181 31.3868 23.0316C31.349 22.9631 31.3084 22.8975 31.2749 22.8297C30.9856 22.2372 30.6349 21.6709 30.5574 20.9916C30.5024 20.5091 30.4349 20.0272 30.5496 19.55C30.6599 19.0909 30.8037 18.6397 30.939 18.1869C31.0087 17.9538 30.9596 17.8231 30.7371 17.7181C30.6596 17.6816 30.5752 17.6497 30.4915 17.6375C29.9446 17.5581 29.4052 17.6034 28.8756 17.7575C28.6881 17.8122 28.5518 17.9172 28.5102 18.1247C28.4865 18.2438 28.4381 18.3578 28.4043 18.4753C28.2659 18.9637 28.1677 19.4616 27.944 19.9269C27.3834 21.0941 26.7434 22.2172 26.0884 23.3322C26.0174 23.4525 25.9427 23.5706 25.8534 23.7166C25.6234 23.2353 25.3781 22.8034 25.3037 22.2972C25.2196 21.7247 25.1534 21.1531 25.2959 20.585C25.4018 20.1613 25.5402 19.7453 25.6677 19.3272C25.7281 19.1284 25.7002 19.0241 25.5202 18.9194C25.4293 18.8666 25.3265 18.8197 25.224 18.8044C24.6568 18.7203 24.0981 18.7644 23.5509 18.9412C23.3812 18.9962 23.2921 19.1059 23.2402 19.2809C23.0877 19.7972 22.9577 20.3259 22.7437 20.8169C21.8768 22.8044 20.9849 24.7816 20.094 26.7584C19.9081 27.1712 19.6902 27.5697 19.4806 27.9716C19.4274 28.0734 19.3499 28.1631 19.2837 28.2588C19.2306 28.1959 19.2099 28.1528 19.2102 28.1097C19.2118 27.8556 19.1815 27.5941 19.2299 27.3484C19.3765 26.6053 19.5452 25.8663 19.7231 25.13C19.8699 24.5219 20.0409 23.9194 20.2037 23.3153C20.2584 23.1131 20.2593 22.9241 20.114 22.7541C19.8699 22.4694 19.3599 22.4069 19.0574 22.6262L18.9237 22.7019L18.9496 22.4863C19.0134 22.0241 19.0262 21.5634 18.8993 21.1081C18.7412 20.5406 18.3362 20.2141 17.7474 20.2322C17.4731 20.2406 17.1849 20.2875 16.9309 20.3875C15.8624 20.8062 15.0409 21.5478 14.3415 22.44C14.2781 22.5209 14.1943 22.5947 14.1049 22.6444C13.2009 23.1456 12.294 23.6406 11.3874 24.1375L10.3784 24.6903C10.1077 24.4322 9.8618 24.1644 9.58274 23.9372C8.73055 23.2422 7.86462 22.5644 7.00649 21.8772C6.24586 21.2681 5.50899 20.6337 4.94524 19.8272C4.52586 19.2272 4.25555 18.5706 4.22961 17.8287C4.1968 16.8834 4.46493 16.0197 4.94618 15.2156C5.5618 14.1869 6.40149 13.3612 7.32461 12.6134C8.30118 11.8228 9.35743 11.1516 10.4521 10.5387C11.9837 9.68156 13.559 8.92281 15.2481 8.42188C16.9799 7.90813 18.7371 7.61406 20.5496 7.81906C21.2621 7.89969 21.954 8.06281 22.5893 8.41125C23.0759 8.67781 23.4749 9.02687 23.6606 9.5725C23.8437 10.1094 23.8381 10.6534 23.7112 11.1987C23.4534 12.3031 22.8487 13.2134 22.0877 14.0269C20.8396 15.3603 19.3171 16.2681 17.6031 16.8678C16.614 17.2138 15.5965 17.4309 14.5515 17.5188C13.6987 17.5903 12.8637 17.5147 12.0562 17.2181C11.5215 17.0216 11.0559 16.7209 10.6815 16.2847C10.6146 16.2066 10.529 16.1219 10.4043 16.195C10.2821 16.2669 10.2606 16.3831 10.3015 16.5009C10.3699 16.6966 10.4331 16.9003 10.5396 17.0753C10.8074 17.5144 11.1981 17.8328 11.6281 18.1059C12.454 18.6312 13.3771 18.8078 14.3343 18.8488C15.7868 18.9116 17.204 18.6947 18.6012 18.305C20.5959 17.7488 22.3302 16.7663 23.7212 15.2163C24.8793 13.9256 25.7065 12.4691 25.8837 10.7103C25.9702 9.85187 25.8781 9.01094 25.4762 8.22781C25.0402 7.37938 24.3471 6.74844 23.5184 6.31375C22.3115 5.68094 21.009 5.3125 19.6646 5.3125H18.3177C16.6896 5.3125 15.1156 5.77906 13.5856 6.33563C12.4274 6.75719 11.2918 7.25469 10.1893 7.80531C7.78836 9.005 5.55243 10.4516 3.71586 12.4406C2.80086 13.4316 2.02618 14.525 1.58055 15.8125C1.45024 16.1894 1.32649 16.5934 1.23336 16.9831L1.20618 17.5487ZM9.93305 28.2372C9.82899 29.6306 9.19743 30.7603 8.16524 31.6753C7.58462 32.1897 6.91868 32.5559 6.14305 32.6847C5.8618 32.7313 5.57399 32.7425 5.30118 32.6259C4.91211 32.4597 4.82493 32.1144 4.81743 31.7466C4.80586 31.1603 5.01118 30.6303 5.29274 30.1259C5.66024 29.4684 6.19899 28.9672 6.7743 28.4991C7.68055 27.7612 8.66368 27.1369 9.67055 26.5475L9.74649 26.5162C9.90212 27.0912 9.97618 27.6591 9.93305 28.2372ZM17.7949 22.1813C17.7215 22.6263 17.6296 23.0716 17.4996 23.5028C17.0502 24.9956 16.4731 26.4422 15.849 27.8694C15.7337 28.1334 15.5659 28.3744 15.4199 28.6247C15.3974 28.6634 15.364 28.6969 15.3315 28.7291C15.1509 28.9075 14.9796 28.8981 14.8884 28.6647C14.7821 28.3934 14.7168 28.1031 14.6606 27.8159C14.6227 27.6231 14.6318 27.4206 14.6199 27.2231C14.6321 25.8187 15.0606 24.5425 15.7874 23.3544C16.0871 22.8644 16.4134 22.3975 16.9118 22.0875C17.0649 21.9922 17.2368 21.9156 17.4102 21.8669C17.6759 21.7922 17.839 21.915 17.7949 22.1813ZM23.1587 29.015L25.0865 26.7641C25.1668 27.6 23.7459 29.2687 23.1587 29.015ZM29.3159 27.5003C29.1796 27.5784 29.0312 27.6347 28.8915 27.7069C28.7637 27.7731 28.7215 27.7062 28.7177 27.5962C28.7152 27.5216 28.7262 27.4434 28.7468 27.3709C29.0071 26.4528 29.4862 25.6691 30.199 25.0316L30.249 25.0059C30.5881 25.9544 30.1962 26.9959 29.3159 27.5003Z" fill="url(#paint0_linear_22_58)"/>
</g>
<defs>
<linearGradient id="paint0_linear_22_58" x1="20.824" y1="5.3125" x2="20.824" y2="34.6569" gradientUnits="userSpaceOnUse">
<stop stop-color="#C3AEFF"/>
<stop offset="1" stop-color="#9071E9"/>
</linearGradient>
<clipPath id="clip0_22_58">
<rect x="0.825195" width="40" height="40" rx="5" fill="white"/>
</clipPath>
</defs>
</svg>
