<svg width="80" height="80" viewBox="0 0 640 512" fill="none" xmlns="http://www.w3.org/2000/svg">
<path d="M301.84 378.92C301.54 379.52 301.24 380 301.84 378.92V378.92ZM550.97 291.92C530.857 291.914 511.013 296.533 492.97 305.42C487.07 293.52 480.97 283.12 479.97 275.32C478.77 266.22 477.47 260.82 478.87 250.02C480.27 239.22 486.57 223.92 486.47 222.82C486.37 221.72 485.07 216.22 472.17 216.12C459.27 216.02 448.17 218.62 446.88 222.02C444.602 228.234 442.829 234.621 441.58 241.12C439.28 252.82 415.79 294.62 402.49 316.42C398.09 307.92 394.39 300.42 393.59 294.42C392.39 285.32 391.09 279.92 392.49 269.12C393.89 258.32 400.19 243.02 400.09 241.92C399.99 240.82 398.69 235.32 385.8 235.22C372.91 235.12 361.8 237.72 360.5 241.12C359.2 244.52 357.8 252.52 355.2 260.22C352.6 267.92 321.31 337.52 313.12 355.62C308.92 364.82 305.32 372.22 302.72 377.22C302.32 378.02 302.02 378.52 301.82 378.92C302.12 378.42 302.32 377.92 302.32 378.12C300.12 382.42 298.82 384.82 298.82 384.82V384.92C297.12 388.12 295.22 391.02 294.32 391.02C293.72 391.02 292.42 382.62 294.62 371.12C299.32 346.92 310.42 309.32 310.32 308.02C310.22 307.32 312.42 300.82 303.02 297.32C293.92 294.02 290.62 299.52 289.82 299.52C289.02 299.52 288.42 301.52 288.42 301.52C288.42 301.52 298.52 259.12 269.03 259.12C250.63 259.12 225.03 279.32 212.45 297.62C204.55 301.92 187.45 311.22 169.45 321.12C162.55 324.92 155.45 328.82 148.75 332.52C148.25 332.02 147.85 331.52 147.35 331.02C111.56 292.82 45.4801 265.82 48.2801 214.52C49.2801 195.82 55.7801 146.72 175.35 87.1202C273.35 38.3202 351.7 51.7201 365.19 81.5201C384.59 124.02 323.3 203.12 221.53 214.52C182.74 218.82 162.35 203.82 157.25 198.22C151.95 192.32 151.15 192.02 149.15 193.12C145.85 194.92 147.95 200.12 149.15 203.22C152.15 211.12 164.65 225.12 185.94 232.12C204.64 238.22 250.12 241.62 305.11 220.32C366.89 196.52 414.98 130.22 400.88 74.7202C386.52 18.3202 293 -0.179849 204.57 31.2202C151.88 49.9202 94.9001 79.3202 53.9101 117.62C5.2201 163.22 -2.5699 202.92 0.630099 219.52C12.0201 278.42 93.2001 316.82 125.69 345.22C124.09 346.12 122.59 346.92 121.19 347.72C104.9 355.82 43.0101 388.22 27.5201 422.42C10.0201 461.22 30.4201 489.02 43.8101 492.82C85.6001 504.42 128.39 483.52 151.38 449.22C174.37 414.92 171.58 370.12 160.98 349.72C160.88 349.42 160.68 349.22 160.58 348.92C164.78 346.42 169.08 343.92 173.38 341.42C181.67 336.52 189.77 332.02 196.87 328.12C192.87 338.92 189.97 351.92 188.47 370.72C186.67 392.72 195.77 421.22 207.57 432.42C212.77 437.32 219.06 437.42 222.96 437.42C236.76 437.42 242.96 426.02 249.85 412.42C258.35 395.82 265.85 376.52 265.85 376.52C265.85 376.52 256.45 428.72 282.15 428.72C291.54 428.72 300.94 416.62 305.15 410.42V410.52C305.15 410.52 305.35 410.12 305.85 409.32C306.85 407.82 307.35 406.92 307.35 406.92V406.62C311.15 400.12 319.45 385.22 331.94 360.62C348.14 328.82 363.63 289.12 363.63 289.12C365.127 297.847 367.198 306.466 369.83 314.92C372.63 324.42 378.53 334.82 383.23 344.92C379.43 350.12 377.13 353.12 377.13 353.12C377.137 353.197 377.173 353.268 377.23 353.32C374.23 357.32 370.83 361.62 367.33 365.82C354.54 381.02 339.33 398.42 337.33 403.42C334.93 409.32 335.53 413.72 340.13 417.12C343.53 419.72 349.53 420.12 355.82 419.62C367.32 418.82 375.42 416.02 379.32 414.22C386.51 411.642 393.305 408.074 399.51 403.62C412.01 394.42 419.61 381.22 418.91 363.82C418.51 354.22 415.41 344.62 411.61 335.62C412.71 334.02 413.91 332.32 415.01 330.62C434.8 301.72 450.1 270 450.1 270C451.597 278.727 453.668 287.346 456.3 295.8C458.7 303.9 463.39 312.8 467.69 321.5C449.1 336.6 437.6 354.1 433.6 365.6C426.2 386.9 432 396.5 442.9 398.7C447.8 399.7 454.8 397.4 460 395.2C467.723 392.628 475.004 388.884 481.59 384.1C494.09 374.9 506.18 362 505.38 344.5C505.08 336.6 502.88 328.7 499.98 321.1C515.68 314.5 536.07 310.9 562.07 313.9C617.75 320.4 628.65 355.2 626.55 369.7C624.45 384.2 612.75 392.3 608.85 394.7C604.95 397.1 603.75 398 604.05 399.8C604.55 402.4 606.35 402.3 609.65 401.7C614.25 400.9 638.84 389.9 639.94 363C641.54 329 608.85 291.6 550.94 291.9L550.97 291.92ZM121.79 436.62C103.4 456.72 77.6001 464.32 66.5101 457.92C54.6101 451 59.3101 421.42 82.0001 400C95.8001 387 113.59 375 125.39 367.6C128.09 366 131.99 363.6 136.79 360.7C137.59 360.2 137.99 360 137.99 360C138.89 359.4 139.89 358.9 140.89 358.3C149.18 388.7 141.19 415.5 121.79 436.6V436.62ZM256.15 345.22C249.75 360.92 236.26 400.92 228.06 398.82C221.06 397.02 216.76 366.52 226.66 336.52C231.66 321.42 242.26 303.42 248.56 296.42C258.65 285.12 269.75 281.52 272.35 286.02C275.85 291.92 260.15 335.42 256.15 345.22ZM367.15 398.22C364.45 399.62 361.95 400.52 360.75 399.82C359.85 399.32 361.85 397.42 361.85 397.42C361.85 397.42 375.75 382.52 381.25 375.72C384.45 371.72 388.15 367.02 392.14 361.82C392.14 362.32 392.24 362.82 392.24 363.42C392.11 381.32 374.92 393.42 367.12 398.22H367.15ZM452.73 378.72C450.73 377.32 451.03 372.62 457.73 358.02C460.33 352.32 466.32 342.72 476.73 333.52C477.908 337.003 478.549 340.645 478.63 344.32C478.53 366.82 462.43 375.22 452.74 378.72H452.73Z" fill="url(#paint0_linear_150_166)"/>
<defs>
<linearGradient id="paint0_linear_150_166" x1="320" y1="16.0044" x2="320" y2="496.044" gradientUnits="userSpaceOnUse">
<stop stop-color="#C3AEFF"/>
<stop offset="1" stop-color="#9071E9"/>
</linearGradient>
</defs>
</svg>
