<svg width="24" height="24" viewBox="0 0 39 34" fill="none" xmlns="http://www.w3.org/2000/svg">
<g clip-path="url(#clip0_86_133)">
<path d="M9.77988 16.3256C9.62749 17.9978 11.3127 19.2295 12.4627 19.2295C13.6143 19.1827 18.0995 15.8876 18.0995 15.8876C20.2091 13.5617 20.2182 12.5275 20.2182 11.7145C20.0422 8.12582 12.5424 13.5919 9.77988 16.3256ZM28.3327 14.9365C29.3507 13.0581 27.981 10.9718 25.0018 12.8043C22.6344 14.1161 19.5694 16.8148 18.1026 17.8711C17.4223 19.0692 19.1469 22.3569 21.88 20.621C25.1105 18.5749 27.4695 16.6509 28.3327 14.9365ZM31.1053 3.57359L31.7613 0H39V6.52335L36.3472 6.55097L33.1529 15.983C33.3517 19.3117 31.4155 19.3659 31.1681 20.8933C30.5464 24.7323 25.622 27.8734 23.7393 27.8734C22.4836 27.8417 21.5656 26.587 21.2573 25.4937C24.7978 22.0798 29.5588 19.3968 29.5588 19.3968C29.8561 17.6014 29.2027 17.0298 31.4001 15.4999L33.497 5.88836C31.7061 4.85741 30.8705 4.87342 31.1053 3.57359V3.57359ZM16.9764 19.4912C18.8123 22.7161 21.465 22.8002 25.5777 18.6944C25.6755 19.0739 25.7825 19.4717 25.5861 20.4265C17.2198 26.9502 9.33985 33.2995 6.94125 34H0V32.377C1.12886 31.0123 10.3935 24.3504 16.9764 19.4912V19.4912ZM29.3412 25.7353C28.9646 28.5268 26.0453 30.9694 22.1443 34H9.7814L20.2038 26.3463C22.003 29.916 25.1986 29.3989 29.3412 25.7353V25.7353ZM14.721 19.3993L0 30.338V23.2412L8.663 17.0929C9.12645 19.3813 11.9654 21.3964 14.721 19.3993V19.3993Z" fill="url(#paint0_linear_86_133)"/>
</g>
<defs>
<linearGradient id="paint0_linear_86_133" x1="19.5" y1="0" x2="19.5" y2="34" gradientUnits="userSpaceOnUse">
<stop stop-color="#C3AEFF"/>
<stop offset="1" stop-color="#9071E9"/>
</linearGradient>
<clipPath id="clip0_86_133">
<rect width="39" height="34" fill="white"/>
</clipPath>
</defs>
</svg>
