<svg width="141" height="33" viewBox="0 0 141 33" fill="none" xmlns="http://www.w3.org/2000/svg">
<rect x="88" y="9" width="6" height="19" fill="white"/>
<circle cx="91" cy="3" r="3" fill="#9071E9"/>
<path d="M19.628 28V3.088H34.1L33.524 6.94H24.92V13.996H32.408V17.848H24.92V28H19.628ZM42.3901 28.576C40.8301 28.576 39.6181 28.132 38.7541 27.244C37.8901 26.332 37.4581 25.048 37.4581 23.392V1.324L42.5701 0.747999V23.248C42.5701 24.088 42.9181 24.508 43.6141 24.508C43.9981 24.508 44.3341 24.436 44.6221 24.292L45.6661 27.928C44.6821 28.36 43.5901 28.576 42.3901 28.576ZM63.2347 22.708C63.2347 23.452 63.3427 24.004 63.5587 24.364C63.7747 24.7 64.1347 24.952 64.6387 25.12L63.5587 28.504C62.4307 28.408 61.5067 28.144 60.7867 27.712C60.0907 27.28 59.5507 26.608 59.1667 25.696C57.9187 27.616 56.0107 28.576 53.4427 28.576C51.5467 28.576 50.0347 28.036 48.9067 26.956C47.8027 25.852 47.2507 24.424 47.2507 22.672C47.2507 20.584 48.0067 18.988 49.5187 17.884C51.0307 16.78 53.2027 16.228 56.0347 16.228H58.2307V15.292C58.2307 14.116 57.9667 13.3 57.4387 12.844C56.9107 12.388 56.0347 12.16 54.8107 12.16C53.4667 12.16 51.7867 12.496 49.7707 13.168L48.6187 9.748C50.9947 8.812 53.3467 8.344 55.6747 8.344C58.2667 8.344 60.1747 8.908 61.3987 10.036C62.6227 11.14 63.2347 12.796 63.2347 15.004V22.708ZM54.8467 24.904C56.2867 24.904 57.4147 24.196 58.2307 22.78V19.144H56.5387C53.7787 19.144 52.3987 20.176 52.3987 22.24C52.3987 23.08 52.6027 23.74 53.0107 24.22C53.4427 24.676 54.0547 24.904 54.8467 24.904ZM84.1948 8.92L78.0748 28H71.9908L65.7628 8.92H71.3068L75.0868 24.004L78.9388 8.92H84.1948Z" fill="white"/>
<path d="M15.05 9.05L16.66 12.655L5.495 17.345L16.66 21.965L15.05 25.64L1.33 19.585V15.105L15.05 9.05Z" fill="url(#paint0_linear_144_1958)"/>
<path d="M106.06 0.51L110.365 1.49L102.175 32.85L97.835 31.835L106.06 0.51ZM116.649 9.05L130.369 15.105V19.585L116.649 25.64L115.039 21.965L126.204 17.345L115.039 12.655L116.649 9.05Z" fill="url(#paint1_linear_144_1958)"/>
<defs>
<linearGradient id="paint0_linear_144_1958" x1="9" y1="1" x2="9" y2="33" gradientUnits="userSpaceOnUse">
<stop stop-color="#C3AEFF"/>
<stop offset="1" stop-color="#9071E9"/>
</linearGradient>
<linearGradient id="paint1_linear_144_1958" x1="113.5" y1="5" x2="113.5" y2="29" gradientUnits="userSpaceOnUse">
<stop stop-color="#C3AEFF"/>
<stop offset="1" stop-color="#9071E9"/>
</linearGradient>
</defs>
</svg>
